<svg xmlns="http://www.w3.org/2000/svg" width="1440" height="650" viewBox="0 0 1440 650"><defs><filter id="shadow" x="-10%" y="-15%" width="120%" height="140%"><feDropShadow dx="0" dy="9" stdDeviation="13" flood-color="#192334" flood-opacity=".11"/></filter><linearGradient id="glass" x2="0" y2="1"><stop stop-color="white" stop-opacity=".9"/><stop offset="1" stop-color="white" stop-opacity=".2"/></linearGradient></defs><rect width="1440" height="650" fill="#E9EBF0"/><g font-family="-apple-system,BlinkMacSystemFont,PingFang SC,Microsoft YaHei,sans-serif"><text x="66" y="65" font-size="31" font-weight="650" fill="#131A28">Silver Studio / 瓷白 × 极光蓝</text><text x="66" y="98" font-size="18" fill="#475267">纯白阅读区 · 浅蓝底与深蓝选中态 · 极光蓝操作按钮　｜　配色概念预览，非应用截图</text><g transform="translate(66,138)"><text y="28" font-size="29" font-weight="650" fill="#18181B">08　瓷白 × 极光蓝</text><text x="395" y="25" font-size="18" fill="#475267">纯白基底 · 浅蓝选中项 · 深石墨文字</text><g transform="translate(0,53)" filter="url(#shadow)"><rect width="1308" height="351" rx="23" fill="#FFFFFF"/><path d="M23 0H238V351H23Q0 351 0 328V23Q0 0 23 0Z" fill="#FAFAFB"/><path d="M238 0V351" stroke="#18181B" stroke-opacity=".13"/><path d="M23 1H1285" stroke="white"/><circle cx="25" cy="23" r="5.5" fill="#ED7373"/><circle cx="46" cy="23" r="5.5" fill="#E5B851"/><circle cx="67" cy="23" r="5.5" fill="#65AD80"/><text x="22" y="68" font-size="12" font-weight="650" letter-spacing="1" fill="#52525B">WORKSPACE</text><rect x="16" y="85" width="205" height="36" rx="11" fill="#18181B" fill-opacity=".07"/><rect x="119" y="88" width="99" height="30" rx="9" fill="white"/><text x="33" y="109" font-size="13" fill="#52525B">SESSIONS</text><text x="148" y="109" font-size="13" font-weight="700" fill="#1458D4">BOTS</text><rect x="16" y="139" width="205" height="49" rx="12" fill="#EAF2FF" stroke="#CDDEFA"/><circle cx="42" cy="163" r="13" fill="#D4E5FF"/><text x="37" y="168" font-size="14" fill="#1458D4">H</text><text x="66" y="162" font-size="16" font-weight="600" fill="#1458D4">Hermes</text><text x="66" y="179" font-size="11" fill="#1458D4">个人助理</text><text x="31" y="220" font-size="16" fill="#18181B">媒介小吴</text><text x="31" y="259" font-size="16" fill="#18181B">金融大师</text><path d="M22 293H214" stroke="#18181B" stroke-opacity=".12"/><text x="29" y="322" font-size="14" fill="#52525B">设置与外观</text><text x="274" y="34" font-size="17" font-weight="650" fill="#18181B">Hermes</text><text x="351" y="34" font-size="13" fill="#52525B">/ 今天的工作</text><rect x="931" y="54" width="338" height="47" rx="15" fill="#F4F4F5"/><text x="951" y="84" font-size="18" fill="#18181B">帮我整理今天的重点，清楚一点。</text><text x="276" y="135" font-size="23" font-weight="650" fill="#18181B">今天先完成三件事</text><text x="276" y="170" font-size="19" fill="#18181B">核对项目进度，确认关键交付。</text><text x="276" y="202" font-size="19" fill="#18181B">把复杂信息整理清楚，让每一步都有明确结果。</text><text x="276" y="238" font-size="15" fill="#1458D4" font-weight="600">查看完整计划 →</text><rect x="267" y="265" width="1015" height="66" rx="20" fill="#FAFAFB" stroke="#52525B" stroke-opacity=".35"/><rect x="268" y="266" width="1013" height="64" rx="19" fill="url(#glass)"/><text x="290" y="305" font-size="18" fill="#52525B">描述你需要什么…</text><text x="1053" y="305" font-size="13" fill="#52525B">GLM 5.3 Flash</text><circle cx="1245" cy="298" r="20" fill="#1458D4"/><path d="M1245 306V290M1239 296L1245 290L1251 296" fill="none" stroke="white" stroke-width="2.2" stroke-linecap="round"/></g><rect x="0" y="424" width="25" height="25" rx="7" fill="#FFFFFF" stroke="#111827" stroke-opacity=".18"/><text x="35" y="442" font-size="15" fill="#303B4B">画布 #FFFFFF</text><rect x="205" y="424" width="25" height="25" rx="7" fill="#FAFAFB" stroke="#111827" stroke-opacity=".18"/><text x="240" y="442" font-size="15" fill="#303B4B">侧栏 #FAFAFB</text><rect x="410" y="424" width="25" height="25" rx="7" fill="#18181B" stroke="#111827" stroke-opacity=".18"/><text x="445" y="442" font-size="15" fill="#303B4B">正文 #18181B</text><rect x="615" y="424" width="25" height="25" rx="7" fill="#1458D4" stroke="#111827" stroke-opacity=".18"/><text x="650" y="442" font-size="15" fill="#303B4B">强调 #1458D4</text><text x="891" y="442" font-size="15" fill="#303B4B">正文 / 画布对比度　17.7 : 1</text></g></g></svg>